<svg xmlns="http://www.w3.org/2000/svg" width="30" height="30" fill="none" viewBox="0 0 30 30"><mask id="mask0_9749_48262" width="26" height="26" x="2" y="1" maskUnits="userSpaceOnUse" style="mask-type:alpha"><path fill="#D9D9D9" d="M28 1H2v26h26z"/></mask><g mask="url(#mask0_9749_48262)"><path fill="#fff" d="M21.94 21.42a2.6 2.6 0 0 0 1.916-.79 2.62 2.62 0 0 0 .786-1.918h1.3V8.366c0-.47-.154-.857-.46-1.164-.308-.307-.696-.46-1.165-.46H10.233v3.79H7.958l-3.9 5.255v2.925h1.625c0 .752.264 1.392.792 1.918a2.62 2.62 0 0 0 1.923.79 2.6 2.6 0 0 0 1.917-.79 2.62 2.62 0 0 0 .785-1.918h8.125c0 .758.264 1.4.792 1.923a2.628 2.628 0 0 0 1.923.785Zm-.007-.758a1.88 1.88 0 0 1-1.38-.569 1.88 1.88 0 0 1-.57-1.381c0-.542.19-1.002.57-1.381.378-.38.839-.569 1.38-.569.542 0 1.002.19 1.382.569.379.379.568.84.568 1.381a1.88 1.88 0 0 1-.568 1.381c-.38.38-.84.569-1.382.569Zm3.25-2.708h-.65c-.108-.524-.41-.98-.907-1.368a2.675 2.675 0 0 0-1.693-.582c-.596 0-1.15.19-1.665.569-.515.379-.826.839-.935 1.38h-8.341V7.5h13.325c.216 0 .415.09.596.27.18.18.27.38.27.596v9.588ZM8.392 20.662a1.88 1.88 0 0 1-1.382-.569 1.88 1.88 0 0 1-.568-1.381c0-.542.19-1.002.568-1.381.38-.38.84-.569 1.382-.569.541 0 1.002.19 1.38.569.38.379.57.84.57 1.381a1.88 1.88 0 0 1-.57 1.381c-.378.38-.839.569-1.38.569Zm1.841-4.875H4.98l3.413-4.496h1.841v4.496Z"/></g></svg>