<svg xmlns="http://www.w3.org/2000/svg" width="30" height="30" fill="none" viewBox="0 0 30 30"><path fill="#fff" stroke="#fff" stroke-width=".3" d="M8.232 17.003h1.01V9.727l-.565-.758a.203.203 0 0 1-.038-.157l.463-2.632A.228.228 0 0 1 9.33 6h1.498c.114 0 .21.077.229.18l.463 2.632a.203.203 0 0 1-.038.157l-.565.758v7.276h1.01c.128 0 .232.097.232.215v5.739c0 .575-.505 1.043-1.124 1.043H9.124C8.504 24 8 23.532 8 22.957v-5.739c0-.118.104-.215.232-.215Zm2.222-7.344v-.016a.03.03 0 0 1 0-.005l.003-.017.001-.004.004-.013.002-.008.001-.004a.18.18 0 0 1 .007-.016v-.002a.158.158 0 0 1 .01-.017l.002-.003a.276.276 0 0 1 .01-.016l.553-.742-.416-2.365H9.527L9.11 8.796l.552.742c.004.006.008.01.01.016l.003.003a.187.187 0 0 1 .009.017v.003a.293.293 0 0 1 .01.027l.004.013.001.005a.137.137 0 0 1 .003.016v.005l.001.017v7.344h.749V9.66Zm-1.99 13.298c0 .338.295.613.66.613h1.91c.365 0 .661-.275.661-.613v-5.523H8.463v5.523Zm2.507-3.917H9.187v.43h1.784v-.43Zm0 1.247H9.187v.43h1.784v-.43Zm0 1.247H9.187v.43h1.784v-.43Zm3.686-12.53c0-1.275.833-2.446 2.121-2.985h.002a.19.19 0 0 1 .015-.006l.007-.002.013-.004.01-.002a.136.136 0 0 1 .01-.002l.013-.002h.007A.21.21 0 0 1 16.872 6h.007a.183.183 0 0 1 .049.006.135.135 0 0 1 .022.007.154.154 0 0 1 .02.007l.01.004.01.005.01.006.008.005.01.007a.12.12 0 0 1 .017.014l.006.006a.147.147 0 0 1 .009.01l.006.006.008.01a.124.124 0 0 1 .006.009l.005.008a.149.149 0 0 1 .007.012l.003.005v.001l.006.015.003.006a.116.116 0 0 1 .003.012l.003.01.002.009.002.012v2.281h2.448V6.214l.001-.015v-.007l.003-.012.001-.01.003-.009.003-.012.003-.006.006-.015v-.001l.003-.005a.405.405 0 0 1 .012-.02l.007-.01a.065.065 0 0 1 .007-.009l.006-.007a.327.327 0 0 1 .009-.009l.006-.006.01-.008.007-.006.01-.006.009-.006a.11.11 0 0 1 .009-.005l.01-.006a.263.263 0 0 1 .042-.015l.01-.002a.212.212 0 0 1 .024-.005h.01L19.778 6h.031a.146.146 0 0 1 .023.004l.01.002.013.004.007.002.015.006h.002C21.167 6.56 22 7.73 22 9.004c0 1-.492 1.924-1.354 2.552v6.372C21.508 18.556 22 19.48 22 20.48c0 1.274-.833 2.445-2.121 2.984h-.002a.179.179 0 0 1-.018.007l-.005.002a.2.2 0 0 1-.017.004l-.006.002c-.004 0-.008 0-.012.002a.276.276 0 0 1-.035.002h-.003a.216.216 0 0 1-.063-.009.245.245 0 0 1-.029-.01l-.004-.001a.284.284 0 0 1-.022-.011l-.006-.004a.196.196 0 0 1-.023-.015l-.005-.005a.257.257 0 0 1-.016-.015l-.006-.005a.221.221 0 0 1-.017-.022l-.003-.004a.211.211 0 0 1-.013-.023l-.002-.003v-.001a.12.12 0 0 1-.006-.014l-.003-.007a.11.11 0 0 1-.003-.012l-.003-.009a.158.158 0 0 1-.002-.01l-.002-.011a.145.145 0 0 1-.001-.022v-2.296h-2.447v2.296l-.001.015v.007a.17.17 0 0 1-.004.021l-.003.009a.664.664 0 0 1-.003.012l-.003.007-.006.014v.002l-.002.002a.212.212 0 0 1-.013.023l-.003.004a.207.207 0 0 1-.018.021l-.005.006a.19.19 0 0 1-.016.015l-.006.005a.224.224 0 0 1-.023.015l-.005.003a.235.235 0 0 1-.055.023l-.004.001a.28.28 0 0 1-.06.008h-.002a.263.263 0 0 1-.035-.003c-.004 0-.008 0-.012-.002h-.006l-.017-.005-.005-.002a.337.337 0 0 1-.018-.006h-.002c-1.288-.54-2.121-1.711-2.121-2.985 0-1 .492-1.924 1.354-2.552v-6.372c-.862-.628-1.354-1.553-1.354-2.553Zm.463 11.476c0 .994.587 1.916 1.522 2.433V20.76c0-.119.103-.215.231-.215h2.911c.128 0 .232.096.232.215v2.154c.935-.517 1.521-1.44 1.521-2.433 0-.898-.459-1.726-1.259-2.273l-.004-.003-.01-.008a.14.14 0 0 1-.016-.014.135.135 0 0 1-.008-.008l-.007-.008a.308.308 0 0 1-.007-.009l-.006-.008a.526.526 0 0 1-.011-.018l-.005-.01-.005-.01a.159.159 0 0 1-.009-.029l-.002-.011a.157.157 0 0 1-.002-.01l-.001-.01-.001-.012V11.432l.002-.01a.17.17 0 0 1 .002-.01l.002-.011.002-.01.004-.01.003-.01.005-.01a.134.134 0 0 1 .005-.009l.005-.009.006-.01a.135.135 0 0 1 .006-.007l.007-.01.007-.007.008-.008a.177.177 0 0 1 .008-.008l.008-.006a.153.153 0 0 1 .014-.012c.8-.546 1.26-1.374 1.26-2.272 0-.994-.587-1.916-1.522-2.434v2.119c0 .119-.104.215-.232.215h-2.91c-.129 0-.232-.096-.232-.215V6.569c-.935.518-1.522 1.44-1.522 2.434 0 .898.46 1.726 1.26 2.272 0 .002.002.003.004.004l.01.008a.112.112 0 0 1 .016.014l.008.008.006.008a.223.223 0 0 1 .008.009l.005.008.007.01.005.008a.202.202 0 0 1 .01.02l.003.009a.074.074 0 0 1 .003.01l.003.01a.224.224 0 0 1 .005.031v.012l.001.005v6.59l-.001.012a.154.154 0 0 1-.005.031l-.003.01-.003.01a.159.159 0 0 1-.013.029l-.005.009-.007.01a.187.187 0 0 1-.005.007l-.008.01a.141.141 0 0 1-.014.015.106.106 0 0 1-.008.007l-.008.007-.01.008-.005.003c-.8.547-1.259 1.375-1.259 2.273Z"/></svg>