<svg xmlns="http://www.w3.org/2000/svg" width="30" height="30" fill="none" viewBox="0 0 30 30"><ellipse cx="15.5" cy="21.5" fill="#fff" fill-opacity=".3" rx="11.5" ry="4.5"/><path stroke="#fff" stroke-linecap="square" stroke-width=".8" d="M9 23c2.003.755 7.407 1.811 13 0"/><path stroke="#fff" stroke-linecap="round" stroke-linejoin="round" stroke-width=".8" d="M9 7.369c0 2.181.305 4.847.457 5.907.731 5.452 4.367 7.421 6.043 7.724 5.485-1.363 5.841-5.453 6.298-8.179.153-1.666.366-5.27 0-6.361-1.828 1.454-4.114.606-5.028 0-1.37-.909-1.9-.23-2.285 0-1.828 1.09-4.266.454-5.028 0C9 6.46 9 6.915 9 7.369Z"/><mask id="mask0_9749_48677" width="13" height="13" x="9" y="7" maskUnits="userSpaceOnUse" style="mask-type:alpha"><path fill="#D9D9D9" stroke="#1F418D" stroke-width=".6" d="M9.3 7.3h12.4v12.4H9.3z"/></mask><g mask="url(#mask0_9749_48677)"><path fill="#fff" stroke="#fff" stroke-width=".6" d="m14.629 14.771 3.362-3.362.142.141-3.717 3.716-1.55-1.55.142-.14 1.196 1.195.212.213.213-.213Z"/></g></svg>